<?xml version="1.0" standalone="no"?>
<!DOCTYPE svg PUBLIC "-//W3C//DTD SVG 20010904//EN"
 "http://www.w3.org/TR/2001/REC-SVG-20010904/DTD/svg10.dtd">
<svg version="1.0" xmlns="http://www.w3.org/2000/svg"
 width="641.000000pt" height="208.000000pt" viewBox="0 0 641.000000 208.000000"
 preserveAspectRatio="xMidYMid meet">

<g transform="translate(0.000000,208.000000) scale(0.100000,-0.100000)"
fill="#000000" stroke="none">
<path d="M0 1040 l0 -1040 3205 0 3205 0 0 1040 0 1040 -3205 0 -3205 0 0
-1040z m3355 816 c120 -19 252 -53 295 -77 19 -10 46 -23 60 -29 14 -5 48 -23
75 -40 28 -16 58 -33 68 -36 9 -3 17 -12 17 -19 0 -15 43 -45 63 -45 8 0 20
-7 27 -15 15 -18 -1 -20 -18 -3 -9 9 -12 9 -12 -2 0 -11 -3 -11 -12 -2 -7 7
-22 12 -35 12 -13 0 -22 3 -22 8 4 21 -3 32 -18 32 -34 0 -93 21 -90 32 1 7
-18 11 -51 12 -47 1 -57 5 -77 30 -12 15 -24 23 -26 17 -5 -15 -79 -2 -79 14
0 7 -7 16 -16 19 -8 3 -13 2 -10 -3 15 -24 -62 -19 -101 7 -20 13 -27 12 -70
-9 -26 -12 -48 -18 -50 -13 -8 22 -22 38 -29 31 -4 -4 -1 -18 6 -32 20 -37 7
-40 -38 -10 -38 25 -44 26 -128 20 -89 -7 -114 -10 -187 -21 -33 -6 -39 -4
-44 15 -3 11 -8 21 -12 21 -11 0 -104 -37 -175 -69 -37 -18 -80 -31 -95 -29
-20 2 -26 -1 -25 -14 1 -10 -2 -18 -7 -18 -5 0 -9 5 -9 10 0 29 -107 -19 -182
-81 -26 -21 -51 -39 -57 -39 -6 0 -61 -51 -123 -112 -62 -62 -97 -93 -78 -68
107 139 284 284 446 367 158 81 296 121 499 146 74 9 238 5 320 -7z m-839
-225 c-3 -5 -21 -14 -38 -20 l-33 -11 25 20 c25 20 56 27 46 11z m1504 -66 c7
-9 8 -15 2 -15 -5 0 -12 7 -16 15 -3 8 -4 15 -2 15 2 0 9 -7 16 -15z m134
-114 c20 -20 24 -30 14 -33 -8 -3 -1 -11 18 -21 17 -9 37 -24 45 -33 8 -10 -8
-2 -35 17 -27 19 -58 49 -68 67 -22 40 -11 41 26 3z m-3663 -870 c23 -19 24
-23 24 -179 0 -120 -3 -163 -14 -175 -11 -14 -36 -17 -157 -17 l-144 0 0 195
0 195 134 0 c117 0 137 -2 157 -19z m352 5 c3 -8 3 -17 0 -20 -4 -3 -53 -6
-110 -6 l-103 0 0 -70 0 -70 106 0 c95 0 105 -2 102 -17 -3 -16 -16 -18 -103
-18 l-100 0 -3 -72 -3 -72 108 -3 c155 -4 134 -22 -29 -26 l-133 -3 2 193 c2
106 3 194 3 196 0 1 58 2 129 2 101 0 130 -3 134 -14z m315 -8 c3 -16 -7 -18
-102 -18 l-106 0 0 -70 0 -70 100 0 c91 0 100 -2 100 -19 0 -17 -8 -18 -97
-17 l-98 1 -3 -72 -3 -73 106 0 c87 0 105 -3 105 -15 0 -13 -22 -15 -135 -15
l-135 0 0 195 0 196 132 -3 c117 -3 133 -5 136 -20z m343 3 c21 -17 24 -30 27
-99 4 -76 2 -82 -22 -106 -24 -25 -30 -26 -137 -26 l-111 0 4 -70 4 -70 -31 0
-30 0 2 192 c1 106 2 194 3 196 0 1 60 2 134 2 117 0 137 -2 157 -19z m497 -3
c3 -16 -8 -18 -117 -18 l-121 0 0 -60 0 -60 99 0 c135 0 146 -9 146 -118 0
-113 1 -112 -161 -112 -112 0 -134 2 -134 15 0 13 20 15 120 15 l121 0 -3 68
-3 67 -110 5 c-104 5 -110 6 -122 30 -15 30 -17 118 -4 154 13 32 24 34 166
32 105 -1 120 -3 123 -18z m360 6 c20 -14 22 -23 22 -109 0 -122 -3 -125 -152
-125 l-108 0 0 -70 0 -70 -30 0 -30 0 0 188 c0 104 3 192 7 195 3 4 65 7 137
7 103 0 136 -3 154 -16z m262 -11 c11 -24 104 -233 146 -330 l14 -33 -32 0
c-30 0 -35 4 -53 53 l-20 52 -100 0 -99 0 -21 -52 c-13 -36 -25 -53 -37 -53
-22 0 -22 -2 1 46 47 99 131 306 131 324 0 33 53 27 70 -7z m458 5 c3 -16 -7
-18 -102 -18 l-106 0 0 -160 0 -159 108 -3 c147 -4 135 -22 -17 -26 -98 -2
-122 0 -135 13 -13 14 -16 43 -16 174 0 207 -5 201 160 198 91 -2 105 -4 108
-19z m320 0 c3 -16 -7 -18 -102 -18 l-106 0 0 -70 0 -70 100 0 c90 0 100 -2
100 -18 0 -17 -10 -18 -97 -18 l-98 1 -3 -72 -3 -73 106 0 c87 0 105 -3 105
-15 0 -13 -22 -15 -135 -15 l-135 0 0 195 0 196 132 -3 c117 -3 133 -5 136
-20z m252 -173 l0 -195 -30 0 -30 0 0 195 0 195 30 0 30 0 0 -195z m247 23
l108 -172 3 173 c2 157 4 172 20 169 9 -2 17 -9 16 -16 -1 -6 -2 -93 -2 -192
l-2 -180 -37 0 c-38 0 -38 1 -128 146 -49 80 -94 154 -99 165 -22 46 -28 12
-24 -146 3 -152 2 -165 -14 -165 -17 0 -18 16 -18 195 l0 195 34 0 c34 0 37
-4 143 -172z m278 -23 l0 -195 -30 0 -30 0 2 192 c2 106 3 194 3 196 0 1 12 2
28 2 l27 0 0 -195z m335 175 c0 -18 -7 -20 -55 -20 l-55 0 0 -175 0 -175 -30
0 -30 0 0 175 0 175 -60 0 c-43 0 -60 4 -60 13 0 8 3 17 7 20 3 4 69 7 145 7
131 0 138 -1 138 -20z m110 -175 l0 -195 -30 0 -30 0 0 195 0 195 30 0 30 0 0
-195z m336 0 c46 -104 84 -190 84 -192 0 -2 -15 -3 -33 -3 -31 0 -34 3 -51 54
-21 63 -22 63 -138 58 l-77 -3 -22 -55 c-15 -36 -28 -54 -40 -54 -14 0 -4 31
57 172 41 94 74 182 74 195 0 21 4 24 31 21 30 -3 34 -9 115 -193z m384 175
c0 -18 -7 -20 -55 -20 l-55 0 0 -174 0 -174 -30 -4 -30 -5 0 179 0 178 -60 0
c-43 0 -60 4 -60 13 0 8 3 17 7 20 3 4 69 7 145 7 131 0 138 -1 138 -20z m110
-175 l0 -195 -30 0 -30 0 0 195 0 195 30 0 30 0 0 -195z m164 20 c32 -96 62
-173 65 -170 4 2 31 80 61 174 45 139 58 171 74 171 13 0 16 -5 11 -17 -9 -23
-125 -366 -125 -370 0 -2 -17 -3 -37 -3 l-38 0 -66 190 c-36 105 -63 192 -61
195 3 3 17 5 31 5 25 0 29 -8 85 -175z m516 155 c0 -19 -7 -20 -105 -20 l-105
0 0 -70 0 -70 106 0 c95 0 105 -2 102 -17 -3 -16 -16 -18 -103 -18 l-100 0 -3
-72 -3 -73 106 0 c87 0 105 -3 105 -15 0 -13 -21 -15 -132 -15 l-133 0 2 192
c1 106 2 194 3 196 0 1 59 2 130 2 123 0 130 -1 130 -20z"/>
<path d="M3210 1810 c0 -5 6 -10 14 -10 8 0 18 5 21 10 3 6 -3 10 -14 10 -12
0 -21 -4 -21 -10z"/>
<path d="M3000 1780 c-12 -8 -11 -10 7 -10 12 0 28 -3 37 -6 11 -4 16 -1 16
10 0 18 -36 22 -60 6z"/>
<path d="M2945 1770 c-3 -5 -1 -10 4 -10 6 0 11 5 11 10 0 6 -2 10 -4 10 -3 0
-8 -4 -11 -10z"/>
<path d="M3560 1766 c28 -17 50 -21 35 -7 -6 5 -21 12 -35 15 l-25 7 25 -15z"/>
<path d="M2580 1700 c0 -5 5 -10 10 -10 6 0 10 5 10 10 0 6 -4 10 -10 10 -5 0
-10 -4 -10 -10z"/>
<path d="M260 400 l0 -161 98 3 97 3 3 158 3 157 -101 0 -100 0 0 -160z"/>
<path d="M1262 473 l3 -88 100 0 100 0 3 88 3 87 -106 0 -106 0 3 -87z"/>
<path d="M2122 473 l3 -88 97 -3 c113 -3 111 -5 106 108 l-3 65 -103 3 -103 3
3 -88z"/>
<path d="M2555 498 c-7 -18 -23 -55 -34 -81 -12 -27 -21 -51 -21 -53 0 -2 34
-4 76 -4 71 0 75 1 69 20 -12 37 -65 150 -71 150 -3 0 -11 -15 -19 -32z"/>
<path d="M4800 458 c-19 -45 -36 -86 -38 -90 -2 -4 30 -8 72 -8 42 0 76 4 76
9 0 5 -17 45 -37 90 l-38 81 -35 -82z"/>
</g>
</svg>
